<mxfile host="app.diagrams.net" modified="2021-08-19T03:55:05.511Z" agent="5.0 (Windows NT 10.0; Win64; x64) AppleWebKit/537.36 (KHTML, like Gecko) Chrome/92.0.4515.159 Safari/537.36" etag="fXvfjoE04rtgkZV4L1Ov" version="14.6.5" type="github" pages="2">
  <diagram id="p_p8E343H324uSkJnAMd" name="Page-1">
    <mxGraphModel dx="541" dy="922" grid="1" gridSize="10" guides="1" tooltips="1" connect="1" arrows="1" fold="1" page="1" pageScale="1" pageWidth="2336" pageHeight="1654" math="0" shadow="0">
      <root>
        <mxCell id="0" />
        <mxCell id="1" parent="0" />
        <mxCell id="DOBIEb42ZH-M5UX_4_oj-1" value="Duke&#39;s Bookstore" style="html=1;" parent="1" vertex="1">
          <mxGeometry x="210" y="40" width="110" height="50" as="geometry" />
        </mxCell>
        <mxCell id="DOBIEb42ZH-M5UX_4_oj-2" value="Book" style="swimlane;fontStyle=0;childLayout=stackLayout;horizontal=1;startSize=26;fillColor=none;horizontalStack=0;resizeParent=1;resizeParentMax=0;resizeLast=0;collapsible=1;marginBottom=0;" parent="1" vertex="1">
          <mxGeometry x="340" y="327" width="140" height="78" as="geometry" />
        </mxCell>
        <mxCell id="DOBIEb42ZH-M5UX_4_oj-3" value="name" style="text;strokeColor=none;fillColor=none;align=left;verticalAlign=top;spacingLeft=4;spacingRight=4;overflow=hidden;rotatable=0;points=[[0,0.5],[1,0.5]];portConstraint=eastwest;" parent="DOBIEb42ZH-M5UX_4_oj-2" vertex="1">
          <mxGeometry y="26" width="140" height="26" as="geometry" />
        </mxCell>
        <mxCell id="DOBIEb42ZH-M5UX_4_oj-4" value="price" style="text;strokeColor=none;fillColor=none;align=left;verticalAlign=top;spacingLeft=4;spacingRight=4;overflow=hidden;rotatable=0;points=[[0,0.5],[1,0.5]];portConstraint=eastwest;" parent="DOBIEb42ZH-M5UX_4_oj-2" vertex="1">
          <mxGeometry y="52" width="140" height="26" as="geometry" />
        </mxCell>
        <mxCell id="DOBIEb42ZH-M5UX_4_oj-6" value="ShoppingCart" style="swimlane;fontStyle=0;childLayout=stackLayout;horizontal=1;startSize=26;fillColor=none;horizontalStack=0;resizeParent=1;resizeParentMax=0;resizeLast=0;collapsible=1;marginBottom=0;" parent="1" vertex="1">
          <mxGeometry x="10" y="340" width="140" height="52" as="geometry" />
        </mxCell>
        <mxCell id="DOBIEb42ZH-M5UX_4_oj-7" value="cartId" style="text;strokeColor=none;fillColor=none;align=left;verticalAlign=top;spacingLeft=4;spacingRight=4;overflow=hidden;rotatable=0;points=[[0,0.5],[1,0.5]];portConstraint=eastwest;" parent="DOBIEb42ZH-M5UX_4_oj-6" vertex="1">
          <mxGeometry y="26" width="140" height="26" as="geometry" />
        </mxCell>
        <mxCell id="DOBIEb42ZH-M5UX_4_oj-10" value="Customer" style="swimlane;fontStyle=0;childLayout=stackLayout;horizontal=1;startSize=26;fillColor=none;horizontalStack=0;resizeParent=1;resizeParentMax=0;resizeLast=0;collapsible=1;marginBottom=0;" parent="1" vertex="1">
          <mxGeometry x="10" y="172" width="140" height="78" as="geometry" />
        </mxCell>
        <mxCell id="DOBIEb42ZH-M5UX_4_oj-11" value="name" style="text;strokeColor=none;fillColor=none;align=left;verticalAlign=top;spacingLeft=4;spacingRight=4;overflow=hidden;rotatable=0;points=[[0,0.5],[1,0.5]];portConstraint=eastwest;" parent="DOBIEb42ZH-M5UX_4_oj-10" vertex="1">
          <mxGeometry y="26" width="140" height="26" as="geometry" />
        </mxCell>
        <mxCell id="DOBIEb42ZH-M5UX_4_oj-12" value="address" style="text;strokeColor=none;fillColor=none;align=left;verticalAlign=top;spacingLeft=4;spacingRight=4;overflow=hidden;rotatable=0;points=[[0,0.5],[1,0.5]];portConstraint=eastwest;" parent="DOBIEb42ZH-M5UX_4_oj-10" vertex="1">
          <mxGeometry y="52" width="140" height="26" as="geometry" />
        </mxCell>
        <mxCell id="DOBIEb42ZH-M5UX_4_oj-14" value="Order" style="swimlane;fontStyle=0;childLayout=stackLayout;horizontal=1;startSize=26;fillColor=none;horizontalStack=0;resizeParent=1;resizeParentMax=0;resizeLast=0;collapsible=1;marginBottom=0;" parent="1" vertex="1">
          <mxGeometry x="350" y="172" width="140" height="78" as="geometry" />
        </mxCell>
        <mxCell id="DOBIEb42ZH-M5UX_4_oj-15" value="customer" style="text;strokeColor=none;fillColor=none;align=left;verticalAlign=top;spacingLeft=4;spacingRight=4;overflow=hidden;rotatable=0;points=[[0,0.5],[1,0.5]];portConstraint=eastwest;" parent="DOBIEb42ZH-M5UX_4_oj-14" vertex="1">
          <mxGeometry y="26" width="140" height="26" as="geometry" />
        </mxCell>
        <mxCell id="DOBIEb42ZH-M5UX_4_oj-16" value="total" style="text;strokeColor=none;fillColor=none;align=left;verticalAlign=top;spacingLeft=4;spacingRight=4;overflow=hidden;rotatable=0;points=[[0,0.5],[1,0.5]];portConstraint=eastwest;" parent="DOBIEb42ZH-M5UX_4_oj-14" vertex="1">
          <mxGeometry y="52" width="140" height="26" as="geometry" />
        </mxCell>
      </root>
    </mxGraphModel>
  </diagram>
  <diagram id="KwyT_j5OZFI8NRK80Xnv" name="Page-2">
    <mxGraphModel dx="460" dy="784" grid="1" gridSize="10" guides="1" tooltips="1" connect="1" arrows="1" fold="1" page="1" pageScale="1" pageWidth="2336" pageHeight="1654" math="0" shadow="0">
      <root>
        <mxCell id="bNpa-5j89n46bbYTu3I8-0" />
        <mxCell id="bNpa-5j89n46bbYTu3I8-1" parent="bNpa-5j89n46bbYTu3I8-0" />
        <mxCell id="peRzCIhxdCVOdMAiiRtF-10" value="" style="rounded=0;whiteSpace=wrap;html=1;" parent="bNpa-5j89n46bbYTu3I8-1" vertex="1">
          <mxGeometry x="160" y="120" width="240" height="470" as="geometry" />
        </mxCell>
        <mxCell id="peRzCIhxdCVOdMAiiRtF-3" style="edgeStyle=none;rounded=0;orthogonalLoop=1;jettySize=auto;html=1;entryX=0.021;entryY=0.6;entryDx=0;entryDy=0;entryPerimeter=0;endArrow=none;endFill=0;" parent="bNpa-5j89n46bbYTu3I8-1" source="bNpa-5j89n46bbYTu3I8-2" target="bNpa-5j89n46bbYTu3I8-3" edge="1">
          <mxGeometry relative="1" as="geometry" />
        </mxCell>
        <mxCell id="peRzCIhxdCVOdMAiiRtF-7" style="edgeStyle=none;rounded=0;orthogonalLoop=1;jettySize=auto;html=1;endArrow=none;endFill=0;" parent="bNpa-5j89n46bbYTu3I8-1" source="bNpa-5j89n46bbYTu3I8-2" target="bNpa-5j89n46bbYTu3I8-4" edge="1">
          <mxGeometry relative="1" as="geometry" />
        </mxCell>
        <mxCell id="peRzCIhxdCVOdMAiiRtF-8" style="edgeStyle=none;rounded=0;orthogonalLoop=1;jettySize=auto;html=1;entryX=0;entryY=0;entryDx=0;entryDy=0;endArrow=none;endFill=0;" parent="bNpa-5j89n46bbYTu3I8-1" source="bNpa-5j89n46bbYTu3I8-2" target="peRzCIhxdCVOdMAiiRtF-0" edge="1">
          <mxGeometry relative="1" as="geometry" />
        </mxCell>
        <mxCell id="bNpa-5j89n46bbYTu3I8-2" value="User" style="shape=umlActor;verticalLabelPosition=bottom;verticalAlign=top;html=1;" parent="bNpa-5j89n46bbYTu3I8-1" vertex="1">
          <mxGeometry x="40" y="310" width="30" height="50" as="geometry" />
        </mxCell>
        <mxCell id="bNpa-5j89n46bbYTu3I8-3" value="Select books" style="ellipse;whiteSpace=wrap;html=1;" parent="bNpa-5j89n46bbYTu3I8-1" vertex="1">
          <mxGeometry x="210" y="200" width="140" height="70" as="geometry" />
        </mxCell>
        <mxCell id="bNpa-5j89n46bbYTu3I8-4" value="Modify shopping cart" style="ellipse;whiteSpace=wrap;html=1;" parent="bNpa-5j89n46bbYTu3I8-1" vertex="1">
          <mxGeometry x="210" y="320" width="140" height="70" as="geometry" />
        </mxCell>
        <mxCell id="peRzCIhxdCVOdMAiiRtF-14" style="edgeStyle=none;rounded=0;orthogonalLoop=1;jettySize=auto;html=1;entryX=0;entryY=1;entryDx=0;entryDy=0;entryPerimeter=0;endArrow=none;endFill=0;" parent="bNpa-5j89n46bbYTu3I8-1" source="peRzCIhxdCVOdMAiiRtF-0" target="peRzCIhxdCVOdMAiiRtF-12" edge="1">
          <mxGeometry relative="1" as="geometry" />
        </mxCell>
        <mxCell id="peRzCIhxdCVOdMAiiRtF-0" value="Use Case" style="ellipse;whiteSpace=wrap;html=1;" parent="bNpa-5j89n46bbYTu3I8-1" vertex="1">
          <mxGeometry x="210" y="480" width="140" height="70" as="geometry" />
        </mxCell>
        <mxCell id="peRzCIhxdCVOdMAiiRtF-11" value="&lt;font style=&quot;font-size: 16px&quot;&gt;Bookstore&lt;/font&gt;" style="text;html=1;align=center;verticalAlign=middle;resizable=0;points=[];autosize=1;strokeColor=none;" parent="bNpa-5j89n46bbYTu3I8-1" vertex="1">
          <mxGeometry x="235" y="150" width="90" height="20" as="geometry" />
        </mxCell>
        <mxCell id="peRzCIhxdCVOdMAiiRtF-13" style="edgeStyle=none;rounded=0;orthogonalLoop=1;jettySize=auto;html=1;entryX=1;entryY=0.5;entryDx=0;entryDy=0;endArrow=none;endFill=0;" parent="bNpa-5j89n46bbYTu3I8-1" source="peRzCIhxdCVOdMAiiRtF-12" target="bNpa-5j89n46bbYTu3I8-3" edge="1">
          <mxGeometry relative="1" as="geometry" />
        </mxCell>
        <mxCell id="peRzCIhxdCVOdMAiiRtF-12" value="Database" style="shape=umlActor;verticalLabelPosition=bottom;verticalAlign=top;html=1;outlineConnect=0;" parent="bNpa-5j89n46bbYTu3I8-1" vertex="1">
          <mxGeometry x="490" y="300" width="30" height="60" as="geometry" />
        </mxCell>
      </root>
    </mxGraphModel>
  </diagram>
</mxfile>
